<?xml version="1.0" encoding="UTF-8"?>
<svg width="65px" height="32px" viewBox="0 0 65 32" version="1.1" xmlns="http://www.w3.org/2000/svg" xmlns:xlink="http://www.w3.org/1999/xlink">
    <title>UI/logo-black</title>
    <g id="Home" stroke="none" stroke-width="1" fill="none" fill-rule="evenodd">
        <g id="Desktop-HD-Copy-2" transform="translate(-687.000000, -31.000000)" stroke="#000000">
            <g id="UI/logo-black" transform="translate(672.000000, 0.000000)">
                <g id="logo-black-copy-2">
                    <g id="db" transform="translate(17.404580, 31.777778)" stroke-width="3.6">
                        <path d="M6.85243108e-13,-3.07901852e-14 L6.85243108e-13,29.3016309 C4.02330519,29.3016309 8.92848987,29.3016309 14.715554,29.3016309 C21.2574198,29.3016309 27.5226725,22.4528167 27.5226725,14.6508154 C27.5226725,6.84881414 20.086511,1.14152058 13.7456269,1.59129253 C11.375198,1.59129253 9.26567273,1.59129253 7.41705123,1.59129253 L7.41705123,21.8372403 C9.69279261,21.8372403 12.1256269,21.8372403 14.715554,21.8372403 C15.7206245,21.8372403 20.086511,19.7169216 20.086511,15.426688 C20.086511,11.1364545 16.1446134,9.13315688 14.715554,9.13315688 C12.5911832,9.13315688 10.3670504,9.13315688 8.04315543,9.13315688" id="d"></path>
                        <path d="M33.5038168,1.88698257 L46.5102146,1.88698257 C55.9301271,1.98623978 60.6400833,5.18342614 60.6400833,11.4785416 C60.6400833,17.7736572 57.2811918,21.1012422 50.5634088,21.4612967 L35.2582394,21.4612967 L35.2582394,9.4459816 L50.5634088,9.4459816 C57.2811918,10.3264428 60.6400833,13.9142312 60.6400833,20.2093467 C60.6400833,26.5044622 55.9301271,29.5689631 46.5102146,29.4028494 L33.5038168,29.4028494" id="b"></path>
                    </g>
                    <g id="lines" opacity="0" stroke-width="3.6">
                        <line x1="0.281803348" y1="90.5838415" x2="94.6355825" y2="90.5838415" id="lowerline"></line>
                        <line x1="0.281803348" y1="0.416158537" x2="94.6355825" y2="0.416158537" id="upperline"></line>
                    </g>
                </g>
            </g>
        </g>
    </g>
</svg>